<svg width="36" height="36" viewBox="0 0 36 36" fill="none" xmlns="http://www.w3.org/2000/svg">
<path fill-rule="evenodd" clip-rule="evenodd" d="M18 0C21.6259 0 25.0011 1.07302 27.8264 2.91847L16.9324 18L27.8264 33.0815C25.0011 34.9268 21.6259 36 18 36C8.06063 36 0 27.9394 0 18C0 8.0604 8.06063 0 18 0ZM31.7745 6.41547C34.4108 9.54634 36 13.5873 36 17.9998C36 22.4123 34.4108 26.4528 31.7747 29.5842L23.4067 17.9998L31.7745 6.41547ZM19.0674 11.5398H12.5932L3.28432 24.4267H9.7587L19.0674 11.5398Z" fill="url(#paint0_linear_2116_4189)"/>
<defs>
<linearGradient id="paint0_linear_2116_4189" x1="18" y1="0" x2="18" y2="36" gradientUnits="userSpaceOnUse">
<stop stop-color="#51CBFF"/>
<stop offset="1" stop-color="#834CFF"/>
</linearGradient>
</defs>
</svg>
