<?xml version="1.0" encoding="UTF-8" standalone="no"?>
<!DOCTYPE svg PUBLIC "-//W3C//DTD SVG 1.1//EN"
 "http://www.w3.org/Graphics/SVG/1.1/DTD/svg11.dtd">
<!-- Generated by graphviz version 12.1.2 (20240928.0832)
 -->
<!-- Title: Entity Relationship Diagram created by erdantic Pages: 1 -->
<svg width="298pt" height="335pt"
 viewBox="0.00 0.00 298.00 334.50" xmlns="http://www.w3.org/2000/svg" xmlns:xlink="http://www.w3.org/1999/xlink">
<g id="graph0" class="graph" transform="scale(1 1) rotate(0) translate(4 330.5)">
<title>Entity Relationship Diagram created by erdantic</title>
<polygon fill="white" stroke="none" points="-4,4 -4,-330.5 294,-330.5 294,4 -4,4"/>
<text text-anchor="middle" x="145" y="-5.95" font-family="Times New Roman,Times,Liberation Serif,serif" font-size="9.00" fill="#a8a8a8">Created by erdantic v1.0.5 &lt;https://github.com/drivendataorg/erdantic&gt;</text>
<!-- aind_behavior_services.session.AindBehaviorSessionModel -->
<g id="node1" class="node">
<title>aind_behavior_services.session.AindBehaviorSessionModel</title>
<g id="a_node1"><a xlink:title="aind_behavior_services.session.AindBehaviorSessionModel&#10;&#10;Usage docs: https://docs.pydantic.dev/2.9/concepts/models/&#10;&#10;A base class for creating Pydantic models.&#10;&#10;Attributes:&#10; &#160;&#160;&#160;__class_vars__: The names of the class variables defined on the model.&#10; &#160;&#160;&#160;__private_attributes__: Metadata about the private attributes of the model.&#10; &#160;&#160;&#160;__signature__: The synthesized `__init__` [`Signature`][inspect.Signature] of the model.&#10;&#10; &#160;&#160;&#160;__pydantic_complete__: Whether model building is completed, or if there are still undefined fields.&#10; &#160;&#160;&#160;__pydantic_core_schema__: The core schema of the model.&#10; &#160;&#160;&#160;__pydantic_custom_init__: Whether the model has a custom `__init__` function.&#10; &#160;&#160;&#160;__pydantic_decorators__: Metadata containing the decorators defined on the model.&#10; &#160;&#160;&#160;&#160;&#160;&#160;&#160;This replaces `Model.__validators__` and `Model.__root_validators__` from Pydantic V1.&#10; &#160;&#160;&#160;__pydantic_generic_metadata__: Metadata for generic models; contains data used for a similar purpose to&#10; &#160;&#160;&#160;&#160;&#160;&#160;&#160;__args__, __origin__, __parameters__ in typing&#45;module generics. May eventually be replaced by these.&#10; &#160;&#160;&#160;__pydantic_parent_namespace__: Parent namespace of the model, used for automatic rebuilding of models.&#10; &#160;&#160;&#160;__pydantic_post_init__: The name of the post&#45;init method for the model, if defined.&#10; &#160;&#160;&#160;__pydantic_root_model__: Whether the model is a [`RootModel`][pydantic.root_model.RootModel].&#10; &#160;&#160;&#160;__pydantic_serializer__: The `pydantic&#45;core` `SchemaSerializer` used to dump instances of the model.&#10; &#160;&#160;&#160;__pydantic_validator__: The `pydantic&#45;core` `SchemaValidator` used to validate instances of the model.&#10;&#10; &#160;&#160;&#160;__pydantic_extra__: A dictionary containing extra values, if [`extra`][pydantic.config.ConfigDict.extra]&#10; &#160;&#160;&#160;&#160;&#160;&#160;&#160;is set to `&#39;allow&#39;`.&#10; &#160;&#160;&#160;__pydantic_fields_set__: The names of fields explicitly set during instantiation.&#10; &#160;&#160;&#160;__pydantic_private__: Values of private attributes set on the model instance.&#10;">
<polygon fill="none" stroke="black" points="0,-304.5 0,-326.5 290,-326.5 290,-304.5 0,-304.5"/>
<text text-anchor="start" x="64.75" y="-311.2" font-family="Times New Roman,Times,Liberation Serif,serif" font-weight="bold" font-size="14.00">AindBehaviorSessionModel</text>
<polygon fill="none" stroke="black" points="0,-282.5 0,-304.5 207,-304.5 207,-282.5 0,-282.5"/>
<text text-anchor="start" x="3" y="-288.2" font-family="Times New Roman,Times,Liberation Serif,serif" font-size="14.00">aind_behavior_services_pkg_version</text>
<polygon fill="none" stroke="black" points="207,-282.5 207,-304.5 290,-304.5 290,-282.5 207,-282.5"/>
<text text-anchor="start" x="209.88" y="-288.2" font-family="Times New Roman,Times,Liberation Serif,serif" font-size="14.00">Literal[&#39;0.8.1&#39;]</text>
<polygon fill="none" stroke="black" points="0,-260.5 0,-282.5 207,-282.5 207,-260.5 0,-260.5"/>
<text text-anchor="start" x="83.62" y="-266.2" font-family="Times New Roman,Times,Liberation Serif,serif" font-size="14.00">version</text>
<polygon fill="none" stroke="black" points="207,-260.5 207,-282.5 290,-282.5 290,-260.5 207,-260.5"/>
<text text-anchor="start" x="209.88" y="-266.2" font-family="Times New Roman,Times,Liberation Serif,serif" font-size="14.00">Literal[&#39;0.3.0&#39;]</text>
<polygon fill="none" stroke="black" points="0,-238.5 0,-260.5 207,-260.5 207,-238.5 0,-238.5"/>
<text text-anchor="start" x="72.75" y="-244.2" font-family="Times New Roman,Times,Liberation Serif,serif" font-size="14.00">experiment</text>
<polygon fill="none" stroke="black" points="207,-238.5 207,-260.5 290,-260.5 290,-238.5 207,-238.5"/>
<text text-anchor="start" x="241.75" y="-244.2" font-family="Times New Roman,Times,Liberation Serif,serif" font-size="14.00">str</text>
<polygon fill="none" stroke="black" points="0,-216.5 0,-238.5 207,-238.5 207,-216.5 0,-216.5"/>
<text text-anchor="start" x="67.5" y="-222.2" font-family="Times New Roman,Times,Liberation Serif,serif" font-size="14.00">experimenter</text>
<polygon fill="none" stroke="black" points="207,-216.5 207,-238.5 290,-238.5 290,-216.5 207,-216.5"/>
<text text-anchor="start" x="226.75" y="-222.2" font-family="Times New Roman,Times,Liberation Serif,serif" font-size="14.00">List[str]</text>
<polygon fill="none" stroke="black" points="0,-194.5 0,-216.5 207,-216.5 207,-194.5 0,-194.5"/>
<text text-anchor="start" x="92.25" y="-200.2" font-family="Times New Roman,Times,Liberation Serif,serif" font-size="14.00">date</text>
<polygon fill="none" stroke="black" points="207,-194.5 207,-216.5 290,-216.5 290,-194.5 207,-194.5"/>
<text text-anchor="start" x="224.88" y="-200.2" font-family="Times New Roman,Times,Liberation Serif,serif" font-size="14.00">datetime</text>
<polygon fill="none" stroke="black" points="0,-172.5 0,-194.5 207,-194.5 207,-172.5 0,-172.5"/>
<text text-anchor="start" x="77.62" y="-178.2" font-family="Times New Roman,Times,Liberation Serif,serif" font-size="14.00">root_path</text>
<polygon fill="none" stroke="black" points="207,-172.5 207,-194.5 290,-194.5 290,-172.5 207,-172.5"/>
<text text-anchor="start" x="241.75" y="-178.2" font-family="Times New Roman,Times,Liberation Serif,serif" font-size="14.00">str</text>
<polygon fill="none" stroke="black" points="0,-150.5 0,-172.5 207,-172.5 207,-150.5 0,-150.5"/>
<text text-anchor="start" x="65.62" y="-156.2" font-family="Times New Roman,Times,Liberation Serif,serif" font-size="14.00">session_name</text>
<polygon fill="none" stroke="black" points="207,-150.5 207,-172.5 290,-172.5 290,-150.5 207,-150.5"/>
<text text-anchor="start" x="213.62" y="-156.2" font-family="Times New Roman,Times,Liberation Serif,serif" font-size="14.00">Optional[str]</text>
<polygon fill="none" stroke="black" points="0,-128.5 0,-150.5 207,-150.5 207,-128.5 0,-128.5"/>
<text text-anchor="start" x="84.38" y="-134.2" font-family="Times New Roman,Times,Liberation Serif,serif" font-size="14.00">subject</text>
<polygon fill="none" stroke="black" points="207,-128.5 207,-150.5 290,-150.5 290,-128.5 207,-128.5"/>
<text text-anchor="start" x="241.75" y="-134.2" font-family="Times New Roman,Times,Liberation Serif,serif" font-size="14.00">str</text>
<polygon fill="none" stroke="black" points="0,-106.5 0,-128.5 207,-128.5 207,-106.5 0,-106.5"/>
<text text-anchor="start" x="49.5" y="-112.2" font-family="Times New Roman,Times,Liberation Serif,serif" font-size="14.00">experiment_version</text>
<polygon fill="none" stroke="black" points="207,-106.5 207,-128.5 290,-128.5 290,-106.5 207,-106.5"/>
<text text-anchor="start" x="241.75" y="-112.2" font-family="Times New Roman,Times,Liberation Serif,serif" font-size="14.00">str</text>
<polygon fill="none" stroke="black" points="0,-84.5 0,-106.5 207,-106.5 207,-84.5 0,-84.5"/>
<text text-anchor="start" x="89.25" y="-90.2" font-family="Times New Roman,Times,Liberation Serif,serif" font-size="14.00">notes</text>
<polygon fill="none" stroke="black" points="207,-84.5 207,-106.5 290,-106.5 290,-84.5 207,-84.5"/>
<text text-anchor="start" x="213.62" y="-90.2" font-family="Times New Roman,Times,Liberation Serif,serif" font-size="14.00">Optional[str]</text>
<polygon fill="none" stroke="black" points="0,-62.5 0,-84.5 207,-84.5 207,-62.5 0,-62.5"/>
<text text-anchor="start" x="66.38" y="-68.2" font-family="Times New Roman,Times,Liberation Serif,serif" font-size="14.00">commit_hash</text>
<polygon fill="none" stroke="black" points="207,-62.5 207,-84.5 290,-84.5 290,-62.5 207,-62.5"/>
<text text-anchor="start" x="213.62" y="-68.2" font-family="Times New Roman,Times,Liberation Serif,serif" font-size="14.00">Optional[str]</text>
<polygon fill="none" stroke="black" points="0,-40.5 0,-62.5 207,-62.5 207,-40.5 0,-40.5"/>
<text text-anchor="start" x="57" y="-46.2" font-family="Times New Roman,Times,Liberation Serif,serif" font-size="14.00">allow_dirty_repo</text>
<polygon fill="none" stroke="black" points="207,-40.5 207,-62.5 290,-62.5 290,-40.5 207,-40.5"/>
<text text-anchor="start" x="236.5" y="-46.2" font-family="Times New Roman,Times,Liberation Serif,serif" font-size="14.00">bool</text>
<polygon fill="none" stroke="black" points="0,-18.5 0,-40.5 207,-40.5 207,-18.5 0,-18.5"/>
<text text-anchor="start" x="33.38" y="-24.2" font-family="Times New Roman,Times,Liberation Serif,serif" font-size="14.00">skip_hardware_validation</text>
<polygon fill="none" stroke="black" points="207,-18.5 207,-40.5 290,-40.5 290,-18.5 207,-18.5"/>
<text text-anchor="start" x="236.5" y="-24.2" font-family="Times New Roman,Times,Liberation Serif,serif" font-size="14.00">bool</text>
</a>
</g>
</g>
</g>
</svg>
