<?xml version="1.0" encoding="UTF-8" standalone="no"?>
<!-- Created with Inkscape (http://www.inkscape.org/) -->

<svg
   width="58.013378mm"
   height="59.005676mm"
   viewBox="0 0 58.013378 59.005676"
   version="1.1"
   id="svg5"
   xmlns="http://www.w3.org/2000/svg"
   xmlns:svg="http://www.w3.org/2000/svg">
  <defs
     id="defs2" />
  <g
     id="layer1"
     transform="translate(-45.223114,-106.22127)">
    <path
       style="fill:#000000;stroke-width:0.264583"
       d="m 49.044572,164.94645 c -1.183511,-0.3474 -2.781945,-1.78876 -3.335652,-3.00787 -1.233772,-2.71642 0.142809,-6.28203 2.817992,-7.29913 0.450369,-0.17123 1.61874,-2.73952 5.54844,-12.19648 2.737866,-6.58876 4.869101,-12.01885 4.736079,-12.06685 -2.909335,-1.0499 -6.916537,-3.00907 -7.354543,-3.59573 -0.533302,-0.7143 -0.533401,-0.72374 -0.02348,-2.2358 0.599756,-1.77844 1.415395,-2.7091 2.374293,-2.7091 0.377378,0 2.525125,0.77409 4.772771,1.7202 2.247649,0.94612 4.696095,1.95179 5.440993,2.23482 1.791192,0.6806 2.353315,1.22442 2.353315,2.2767 0,0.51569 -2.258187,6.30202 -5.659694,14.50229 l -5.659692,13.64425 0.53499,1.08132 c 0.641562,1.29671 0.693468,3.54906 0.107889,4.68144 -1.241769,2.40132 -4.157317,3.7027 -6.653702,2.96994 z m 3.020169,-2.75034 c 0.409715,-0.21188 0.953296,-0.82432 1.207963,-1.36098 0.919607,-1.93793 -0.511704,-4.07117 -2.733236,-4.07365 -1.325852,-0.002 -2.685521,1.44009 -2.685521,2.84729 0,2.24719 2.224895,3.61428 4.210794,2.58734 z m 42.967752,2.48222 c -1.25225,-0.61986 -2.23656,-1.78032 -2.69393,-3.17605 l -0.31025,-0.94675 -11.4377,-4.79307 c -6.29074,-2.63618 -11.591721,-4.82952 -11.779959,-4.87408 -0.215728,-0.0511 -0.883293,1.19052 -1.805815,3.35857 -0.804961,1.89177 -1.705936,3.64794 -2.002166,3.9026 -0.747829,0.6429 -1.690661,0.56694 -3.389617,-0.27307 -2.329,-1.15152 -2.321097,-1.27759 0.499012,-7.96065 1.312233,-3.10972 2.588496,-5.87792 2.836138,-6.15156 0.247639,-0.27364 0.762569,-0.49753 1.144286,-0.49753 0.381717,0 6.822406,2.57265 14.312641,5.71701 7.49023,3.14435 13.91626,5.70396 14.28007,5.68801 0.3638,-0.016 1.45117,-0.0978 2.41637,-0.18196 1.43474,-0.12506 1.9416,-0.0572 2.77813,0.37166 2.008337,1.02972 3.009747,2.69519 3.003227,4.99475 -0.006,1.97721 -0.76619,3.36139 -2.47872,4.51105 -1.068137,0.71707 -1.528627,0.85986 -2.772347,0.85969 -0.97581,-1.4e-4 -1.8745,-0.18981 -2.59937,-0.54862 z m 4.1197,-2.52846 c 0.927337,-0.64953 1.384117,-1.95023 1.076337,-3.06491 -0.890497,-3.22513 -5.555457,-2.64573 -5.537447,0.68778 0.009,1.69696 1.14072,2.78527 2.91181,2.80054 0.51332,0.004 1.21051,-0.18611 1.5493,-0.42341 z m -25.04717,-0.5874 c -3.38821,-1.42426 -6.349892,-2.77907 -6.581516,-3.01069 -0.385123,-0.38512 -0.336479,-0.62537 0.568846,-2.80954 0.544489,-1.31362 1.170927,-2.45784 1.392084,-2.5427 0.513265,-0.19696 13.554996,5.35908 13.745656,5.85592 0.14017,0.36528 -1.30504,4.13497 -1.83356,4.78264 -0.14843,0.1819 -0.46366,0.32695 -0.7005,0.32233 -0.23685,-0.005 -3.2028,-1.1737 -6.59101,-2.59796 z m 13.70101,-13.93453 c -6.01615,-2.58178 -6.02799,-2.58821 -6.35589,-3.45066 -0.31057,-0.81685 -0.64013,0.0337 6.18392,-15.95957 l 5.46158,-12.80008 -0.39585,-1.16594 c -0.8224,-2.42232 -0.23717,-4.56948 1.69661,-6.22472 3.53874,-3.02903 8.837367,-0.46155 8.840087,4.28352 5.3e-4,0.81425 -0.18285,1.80482 -0.4162,2.24896 -0.56929,1.08356 -1.98994,2.38591 -3.108007,2.84921 -0.90534,0.37515 -1.03368,0.63762 -5.74063,11.73971 -2.64802,6.24579 -4.88494,11.53931 -4.97092,11.76338 -0.12138,0.3163 0.64858,0.75165 3.44341,1.94697 4.41989,1.89034 4.67754,2.17076 3.953,4.30233 -0.71808,2.11255 -1.27524,2.72452 -2.45875,2.70063 -0.59792,-0.0121 -2.96183,-0.87313 -6.13236,-2.23374 z m 11.64167,-33.18442 c 1.067857,-0.74397 1.440097,-1.75688 1.083277,-2.94782 -0.37877,-1.26424 -1.405217,-2.09563 -2.587307,-2.09563 -1.97524,0 -3.21823,1.42547 -2.90831,3.33527 0.35269,2.17339 2.53301,3.01747 4.41234,1.70818 z m -51.546067,29.8995 c -2.881317,-1.2669 -2.903253,-0.63537 0.287268,-8.2705 l 2.798252,-6.6964 0.88079,0.0349 c 1.088168,0.0431 4.407863,1.52485 4.612794,2.05889 0.08268,0.21546 -1.080387,3.34484 -2.584588,6.95418 -3.147407,7.55223 -2.880116,7.2883 -5.994516,5.91893 z m 45.524007,-2.79253 c -1.05655,-0.49544 -1.98564,-1.06922 -2.06462,-1.27506 -0.15791,-0.4115 5.00375,-12.7875 5.5854,-13.39201 0.29685,-0.30851 0.542,-0.31966 1.3654,-0.0621 1.698077,0.53114 3.909907,1.73879 3.990857,2.17899 0.0423,0.22986 -1.15708,3.32549 -2.665247,6.87917 -3.18225,7.49834 -2.88794,7.22965 -6.21179,5.67102 z m -26.101497,-19.09423 -13.735011,-5.95723 -1.145881,0.32083 c -0.630233,0.17645 -1.73913,0.26382 -2.464214,0.19415 -3.93423,-0.37803 -6.115438,-5.20729 -3.822347,-8.46279 1.963022,-2.78691 6.259819,-3.14074 8.479327,-0.69825 0.650086,0.7154 1.419608,2.15517 1.420876,2.65844 5.29e-4,0.20068 4.891437,2.45014 11.745468,5.40204 l 11.744599,5.05816 1.51588,-3.54435 c 1.95902,-4.58047 2.2607,-4.80535 5.02651,-3.74693 1.16,0.4439 1.59837,0.77104 1.91059,1.42577 0.40026,0.83934 0.37567,0.91854 -2.01884,6.50152 -2.46037,5.73657 -3.17564,6.86089 -4.34139,6.82416 -0.3193,-0.01 -6.76131,-2.69905 -14.315567,-5.97552 z M 52.320942,113.9957 c 0.819872,-0.57426 1.385649,-1.98918 1.188858,-2.97314 -0.19036,-0.9518 -1.057185,-1.82141 -2.107756,-2.11455 -3.008661,-0.83948 -4.854322,3.05621 -2.392651,5.05024 0.71929,0.58265 2.504349,0.60284 3.311549,0.0374 z m 19.103687,1.67821 c -3.407219,-1.48608 -6.319425,-2.90364 -6.471568,-3.15013 -0.213598,-0.34605 -0.03543,-0.97869 0.78196,-2.77661 0.582224,-1.28065 1.241489,-2.36368 1.465035,-2.40673 0.607084,-0.11691 13.403327,5.49326 13.580057,5.95382 0.0838,0.21834 -0.29835,1.42577 -0.84919,2.68317 -0.84516,1.92924 -1.10379,2.29495 -1.65644,2.34231 -0.3602,0.0309 -3.44263,-1.15976 -6.849854,-2.64583 z"
       id="path1796" />
  </g>
</svg>
