<?xml version="1.0" encoding="UTF-8" standalone="no"?>
<svg
   width="160pt"
   height="174pt"
   viewBox="0 0 160 174"
   version="1.1"
   id="svg2"
   sodipodi:docname="graylogger.svg"
   xml:space="preserve"
   inkscape:version="1.4 (e7c3feb100, 2024-10-09)"
   inkscape:export-filename="graylogger.png"
   inkscape:export-xdpi="79.449997"
   inkscape:export-ydpi="79.449997"
   xmlns:inkscape="http://www.inkscape.org/namespaces/inkscape"
   xmlns:sodipodi="http://sodipodi.sourceforge.net/DTD/sodipodi-0.dtd"
   xmlns="http://www.w3.org/2000/svg"
   xmlns:svg="http://www.w3.org/2000/svg"><defs
     id="defs2" /><sodipodi:namedview
     id="namedview2"
     pagecolor="#ffffff"
     bordercolor="#000000"
     borderopacity="0.25"
     inkscape:showpageshadow="2"
     inkscape:pageopacity="0.0"
     inkscape:pagecheckerboard="0"
     inkscape:deskcolor="#d1d1d1"
     inkscape:document-units="pt"
     showgrid="false"
     inkscape:zoom="1.635126"
     inkscape:cx="64.826808"
     inkscape:cy="152.89342"
     inkscape:window-width="1920"
     inkscape:window-height="1051"
     inkscape:window-x="0"
     inkscape:window-y="0"
     inkscape:window-maximized="0"
     inkscape:current-layer="g7"
     inkscape:export-bgcolor="#ffffffff" /><rect
     style="fill:#ffffff;stroke-width:0.75"
     id="rect1"
     width="160"
     height="174"
     x="0"
     y="0" /><g
     id="g7"
     transform="translate(4.254636,2.5975607)"><g
       fill="#02c3ff"
       id="g2"
       transform="translate(-429.64028,-11.564165)"><path
         opacity="1"
         d="m 494.38,56.56 c 12.38,-1.36 25.24,1.6 35.6,8.57 13.13,8.59 22.05,23.22 23.71,38.82 1.63,13.73 -2.29,28.03 -10.76,38.97 -8.2,10.8 -20.67,18.26 -34.08,20.31 -14.04,2.3 -28.95,-1.27 -40.33,-9.82 -11.66,-8.53 -19.55,-21.97 -21.34,-36.3 -1.7,-12.88 1.36,-26.36 8.66,-37.13 8.61,-12.94 23.07,-21.79 38.54,-23.42 m -1.19,18.81 c -14.96,2.83 -26.95,16.36 -27.98,31.55 -1.65,15.36 8.04,31.07 22.62,36.29 14.88,5.93 33.29,0.11 41.94,-13.4 9.5,-13.81 7.3,-34.17 -5.07,-45.52 -8.2,-7.91 -20.39,-11.27 -31.51,-8.92 z"
         id="path1"
         sodipodi:nodetypes="ccccccccccccccc" /><path
         opacity="1"
         d="m 504.02,85.11 c 1.43,0.55 1.96,2.05 2.63,3.3 2.92,6.14 5.94,12.23 8.9,18.36 3.13,0.09 6.28,-0.14 9.41,0.23 3.1,0.52 3.6,5.43 0.49,6.33 -4.65,0.57 -9.36,0.09 -14.03,0.22 -1.77,-3.6 -3.5,-7.21 -5.29,-10.8 -2.43,8.46 -4.59,17 -6.91,25.49 -0.75,2.42 -0.92,5.25 -2.98,7.01 -3.83,-7.2 -7.14,-14.65 -10.85,-21.91 -3.46,-0.13 -6.97,0.28 -10.38,-0.34 -2.81,-1.14 -2.63,-5.67 0.36,-6.43 4.64,-0.51 9.33,-0.08 13.99,-0.19 1.78,3.65 3.55,7.29 5.33,10.93 3.16,-10.72 5.53,-21.72 9.33,-32.2 z"
         id="path2" /></g><g
       id="g5"
       transform="matrix(1.1254154,0,0,1.1254154,-437.90652,2.8622766)"
       style="fill:#000000"><path
         style="fill:#000000"
         d="m 390.09325,145.78982 c -3.47116,-4.95579 2.79118,-16.11237 9.83484,-17.5211 3.2237,-0.64474 4.74764,1.15111 4.74764,5.59471 0,8.51027 -10.79265,17.33712 -14.58248,11.92639 z m 121.38285,-9.12865 c -6.16654,-2.87135 -9.33668,-8.66816 -6.36537,-11.63948 2.26233,-2.26233 6.98547,-2.05382 11.66615,0.51503 12.07152,6.62507 7.16234,16.9277 -5.30078,11.12445 z m -21.94072,-7.92583 c -6.84647,-1.69039 -9.83519,-4.00325 -6.29715,-4.87313 9.33589,-2.29538 7.20742,-8.49026 -8.33735,-24.265733 -9.58775,-9.73006 -9.56968,-9.9615 0.38832,-4.97116 12.73877,6.383893 24.29264,15.530163 26.60289,21.059373 3.2601,7.8025 -3.72649,15.18145 -12.35671,13.05065 z m -83.4397,-1.90133 c -5.0641,-2.75248 -6.02066,-8.8553 -2.53205,-16.15431 2.39797,-5.01714 4.1121,-5.84198 4.1121,-1.97874 0,9.681 12.38876,5.60739 28.99296,-9.533333 5.72911,-5.22415 6.24115,-5.258 3.4006,-0.22483 -11.41186,20.220723 -26.02052,32.213953 -33.97361,27.891213 z m 42.57457,-57.228193 c -2.52999,-3.91599 -4.13529,-28.127882 -2.40594,-36.287562 3.23383,-15.258317 17.05258,-15.410569 21.00624,-0.231443 1.38919,5.333474 0.93766,6.201277 -1.9586,3.764239 -7.41668,-6.240726 -12.33727,2.961787 -15.42912,28.855646 -0.3676,3.07853 -0.81444,4.51538 -1.21258,3.89912 z m 2.69504,-52.229703 c -5.9073,-4.970673 -4.98218,-19.9194208 1.23274,-19.9194208 6.88196,0 10.37139,16.4075248 4.38167,20.6028868 -2.22283,1.556933 -3.07515,1.453177 -5.61441,-0.683466 z"
         id="path5"
         sodipodi:nodetypes="ssssssssssssssssssssssssssssss" /></g><g
       id="g1"
       transform="translate(-429.64028,-11.564165)" /></g></svg>
