<svg width="36" height="36" viewBox="0 0 36 36" fill="none" xmlns="http://www.w3.org/2000/svg">
<rect x="0.7" y="0.7" width="34.6" height="34.6" rx="17.3" fill="white"/>
<rect x="0.7" y="0.7" width="34.6" height="34.6" rx="17.3" stroke="#EBECF0" stroke-width="1.4"/>
<path d="M9.19474 13.7151C9.27621 12.7452 9.9943 11.9579 10.9528 11.7884C12.7785 11.4656 15.7943 11 18.0038 11C20.2117 11 23.2246 11.4649 25.0508 11.7877C26.0112 11.9575 26.73 12.7476 26.8098 13.7197C26.8993 14.8104 26.9959 16.2772 26.9999 17.5679C27.0041 18.94 26.9051 20.5636 26.8119 21.7786C26.7309 22.8351 25.9021 23.6706 24.849 23.7874L22.2435 24.0765C20.7695 24.24 19.4334 25.0194 18.5654 26.2219L18.0038 27L17.4346 26.2146C16.5664 25.0164 15.233 24.2403 13.7624 24.0771L11.151 23.7874C10.0979 23.6706 9.26914 22.8351 9.18811 21.7786C9.09493 20.5636 8.99591 18.94 9.00013 17.5679C9.00411 16.2754 9.10308 14.8062 9.19474 13.7151Z" fill="#A9A9A9"/>
<path d="M11.821 14.1672C11.821 14.1669 11.8207 14.1667 11.8211 14.1667C11.8326 14.1647 15.6464 13.5 17.9989 13.5C20.3511 13.5 24.175 14.1644 24.1879 14.1667C24.1882 14.1667 24.1879 14.1669 24.188 14.1673C24.3956 16.4116 24.4109 18.6697 24.2338 20.9166L24.1879 21.4996C24.1878 21.4998 24.1876 21.5 24.1874 21.5H21.6603C20.1789 21.5 18.7993 22.2536 17.9989 23.5C17.1984 22.2536 15.8188 21.5 14.3375 21.5H11.8214C11.8211 21.5 11.8209 21.4998 11.8209 21.4996L11.7444 20.5063C11.5818 18.3952 11.6074 16.2738 11.821 14.1672Z" fill="white"/>
</svg>
