<svg data-v-fde0c5aa="" xmlns="http://www.w3.org/2000/svg" viewBox="0 0 300 300" class="iconLeft"><!----><defs data-v-fde0c5aa=""><!----></defs><rect data-v-fde0c5aa="" fill="#4D65F1" x="0" y="0" width="300px" height="300px" class="logo-background-square"></rect><defs data-v-fde0c5aa=""><!----></defs><g data-v-fde0c5aa="" id="5f4c2cfa-8d4b-41a1-8e5e-a4c2015fe763" fill="#ffffff" transform="matrix(2.8019175492090875,0,0,2.8019175492090875,98.41342507779518,129.99430923975075)"><path d="M7 9.42C6.33 9.55 5.29 9.67 4.51 9.67C2.30 9.67 1.95 8.39 1.95 5.68C1.95 2.93 2.32 1.64 4.48 1.64C5.24 1.64 6.37 1.78 7 1.89L7.04 0.98C6.43 0.85 5.36 0.67 4.37 0.67C1.46 0.67 0.83 2.41 0.83 5.68C0.83 8.88 1.47 10.64 4.37 10.64C5.29 10.64 6.36 10.49 7.04 10.35ZM13.57 5.61C13.57 4.09 12.89 3.36 11.31 3.36C10.11 3.36 8.57 3.67 8.57 3.67L8.61 4.47C8.61 4.47 10.28 4.28 11.26 4.28C12.10 4.28 12.52 4.63 12.52 5.61L12.52 6.22L10.32 6.43C8.88 6.57 8.18 7.15 8.18 8.50C8.18 9.91 8.88 10.64 10.15 10.64C11.41 10.64 12.67 10.08 12.67 10.08C13.09 10.50 13.59 10.64 14.34 10.64L14.38 9.81C13.93 9.76 13.59 9.60 13.57 9.20ZM12.52 7.01L12.52 9.32C12.52 9.32 11.35 9.76 10.32 9.76C9.60 9.76 9.25 9.28 9.25 8.47C9.25 7.70 9.59 7.29 10.44 7.21ZM15.64 13.61L16.69 13.61L16.69 10.49C16.88 10.53 17.60 10.64 18.26 10.64C20.41 10.64 21.31 9.66 21.31 6.92C21.31 4.44 20.54 3.36 18.77 3.36C17.74 3.36 16.67 4.00 16.67 4.00L16.67 3.50L15.64 3.50ZM18.62 4.30C19.64 4.30 20.24 5.00 20.24 6.92C20.24 8.93 19.74 9.73 18.20 9.73C17.60 9.73 16.87 9.60 16.69 9.58L16.69 4.86C16.69 4.86 17.67 4.30 18.62 4.30ZM25.61 9.72C24.23 9.72 23.77 8.93 23.77 7.43L28.39 7.43L28.45 6.64C28.45 4.34 27.50 3.36 25.63 3.36C23.86 3.36 22.71 4.38 22.71 7.04C22.71 9.42 23.39 10.64 25.48 10.64C26.61 10.64 28.21 10.42 28.21 10.42L28.18 9.59C28.18 9.59 26.66 9.72 25.61 9.72ZM23.76 6.59C23.77 4.90 24.44 4.24 25.63 4.24C26.87 4.24 27.40 4.86 27.40 6.59ZM30.27 0.81L30.27 10.50L33.96 10.50C35.78 10.50 36.96 9.83 36.96 7.78C36.96 6.38 36.27 5.80 35.42 5.50C36.20 5.14 36.67 4.54 36.67 3.28C36.67 1.55 35.67 0.81 33.78 0.81ZM33.85 6.05C34.59 6.05 35.87 6.24 35.87 7.74C35.87 9.17 35.10 9.55 33.92 9.55L31.35 9.55L31.35 6.05ZM33.74 1.76C34.97 1.76 35.56 2.24 35.56 3.37C35.56 4.54 35.06 5.11 33.84 5.11L31.35 5.11L31.35 1.76ZM43.65 5.61C43.65 4.09 42.98 3.36 41.40 3.36C40.19 3.36 38.65 3.67 38.65 3.67L38.70 4.47C38.70 4.47 40.36 4.28 41.34 4.28C42.18 4.28 42.60 4.63 42.60 5.61L42.60 6.22L40.40 6.43C38.96 6.57 38.26 7.15 38.26 8.50C38.26 9.91 38.96 10.64 40.24 10.64C41.50 10.64 42.76 10.08 42.76 10.08C43.18 10.50 43.68 10.64 44.42 10.64L44.46 9.81C44.02 9.76 43.68 9.60 43.65 9.20ZM42.60 7.01L42.60 9.32C42.60 9.32 41.44 9.76 40.40 9.76C39.69 9.76 39.34 9.28 39.34 8.47C39.34 7.70 39.68 7.29 40.53 7.21ZM50.40 3.63C50.40 3.63 48.92 3.36 47.87 3.36C46.59 3.36 45.35 3.86 45.35 5.40C45.35 6.80 46.10 7.10 47.68 7.35C49.21 7.59 49.57 7.77 49.57 8.50C49.57 9.45 48.96 9.70 47.81 9.70C47.10 9.70 45.50 9.46 45.50 9.46L45.44 10.37C45.44 10.37 47.01 10.64 47.91 10.64C49.59 10.64 50.62 10.09 50.62 8.46C50.62 7.10 49.97 6.75 48.22 6.45C46.73 6.20 46.40 6.02 46.40 5.36C46.40 4.54 47.05 4.30 47.92 4.30C48.82 4.30 50.37 4.52 50.37 4.52ZM54.82 9.72C53.45 9.72 52.99 8.93 52.99 7.43L57.61 7.43L57.67 6.64C57.67 4.34 56.71 3.36 54.85 3.36C53.07 3.36 51.93 4.38 51.93 7.04C51.93 9.42 52.61 10.64 54.70 10.64C55.83 10.64 57.43 10.42 57.43 10.42L57.40 9.59C57.40 9.59 55.87 9.72 54.82 9.72ZM52.98 6.59C52.99 4.90 53.66 4.24 54.85 4.24C56.08 4.24 56.62 4.86 56.62 6.59Z"></path></g><defs data-v-fde0c5aa=""><!----></defs><g data-v-fde0c5aa="" id="bdb35d3b-a803-496d-88d1-0f4cc7fa312b" stroke="none" fill="#ffffff" transform="matrix(0.6042822475428699,0,0,0.6042822475428699,33.83704097460614,119.57368495749226)"><path d="M51.447 5.359c-7.519 2.36-13.242 5.488-21.951 17.482S9.487 75.658 10.234 81.008c10.644 0 18.25 2.51 21.25 4.879 3 2.369 9.312 9.006 13.823 9.398 10.599.922 15.097-8.119 22.343-8.119 7.247 0 20.144 6.643 21.55 7.093-8.752-21.885-17.622-48.921-18.42-64.872-.8-15.952 5.5-20.228 3.477-21.985-5.537-3.171-16.521 6.759-20.137 6.027-3.615-.731-1.166-8.353-2.673-8.07zM35.55 47.336c-.418 2.902-1.568 8.666-2.673 13.502s-4.153 13.932-5.072 15.9c2.974-1.99 5.32-10.06 6.406-14.488 1.084-4.427 1.34-7.94 1.34-14.914zm22.097-7.912c-2.938 4.441-2.95 10.039-3.047 11.97-.097 1.93-.112 7.303-.47 12.44-.16 2.288-.877 7.275-1.751 11.956-1.089 5.829-2.225 9.944-2.565 12.213.839-1.667 4.693-14.027 5.565-19.31.871-5.283.591-15.803.79-19.263.2-3.46.163-6.873 1.478-10.006zm1.784 11.659c0 1.1.653 3.03.176 10.423-.215 3.326-.56 6.676-.738 8.935-.202 2.558-.2 4.249-.55 4.285-.343-.868-.457-7.02-.233-10.336.225-3.314 1.054-11.117 1.345-13.307z"></path></g><!----></svg>