<svg viewBox="0 0 512 512">
    <defs>
        <linearGradient id="ptahGradient" x1="0%" y1="0%" x2="100%" y2="100%">
            <stop offset="0%" style="stop-color:#FF0000" />
            <stop offset="20%" style="stop-color:#FFD700" />
            <stop offset="40%" style="stop-color:#00E5FF" />
            <stop offset="60%" style="stop-color:#7934C5" />
            <stop offset="80%" style="stop-color:#FF00FF" />
            <stop offset="100%" style="stop-color:#FF0000" />
        </linearGradient>
        <filter id="ptahGlow" x="-50%" y="-50%" width="200%" height="200%">
            <feGaussianBlur stdDeviation="4" result="glow" />
            <feComposite operator="over" in="glow" in2="SourceGraphic" />
            <feDropShadow dx="0" dy="0" stdDeviation="8" flood-color="#FFD700" flood-opacity="0.5" />
        </filter>
        <radialGradient id="scarabField">
            <stop offset="0%" style="stop-color:#FFD700;stop-opacity:0.3" />
            <stop offset="100%" style="stop-color:#00E5FF;stop-opacity:0" />
        </radialGradient>
    </defs>
    <!-- Cosmic background -->
    <circle cx="256" cy="256" r="256" fill="#111" />
    <circle cx="256" cy="256" r="252" fill="url(#scarabField)" opacity="0.4" />
    <!-- Main scarab structure -->
    <g filter="url(#ptahGlow)">
        <!-- Outer ring -->
        <circle cx="256" cy="256" r="220" fill="none" stroke="url(#ptahGradient)" stroke-width="4" stroke-dasharray="30 15" />
        <!-- Scarab wings -->
        <path d="M256 76
             C356 76, 436 156, 436 256
             C436 356, 356 436, 256 436
             C156 436, 76 356, 76 256
             C76 156, 156 76, 256 76" fill="none" stroke="url(#ptahGradient)" stroke-width="4" />
        <!-- Sacred geometry -->
        <path d="M256 136
             L376 256
             L256 376
             L136 256 Z" fill="none" stroke="url(#ptahGradient)" stroke-width="6" opacity="0.8" />
        <!-- Energy channels -->
        <path d="M256 76 V436 M76 256 H436" stroke="url(#ptahGradient)" stroke-width="4" opacity="0.6" />
        <!-- Power nodes -->
        <circle cx="256" cy="76" r="12" fill="url(#ptahGradient)" />
        <circle cx="436" cy="256" r="12" fill="url(#ptahGradient)" />
        <circle cx="256" cy="436" r="12" fill="url(#ptahGradient)" />
        <circle cx="76" cy="256" r="12" fill="url(#ptahGradient)" />
        <!-- Scarab core -->
        <circle cx="256" cy="256" r="40" fill="none" stroke="url(#ptahGradient)" stroke-width="8" />
        <circle cx="256" cy="256" r="20" fill="url(#ptahGradient)" />
    </g>
    <!-- Divine light particles -->
    <g filter="url(#ptahGlow)" opacity="0.8">
        <circle cx="256" cy="196" r="4" fill="white" />
        <circle cx="316" cy="256" r="4" fill="white" />
        <circle cx="256" cy="316" r="4" fill="white" />
        <circle cx="196" cy="256" r="4" fill="white" />
    </g>
    <!-- Energy waves -->
    <g opacity="0.6">
        <circle cx="256" cy="256" r="160" fill="none" stroke="url(#ptahGradient)" stroke-width="2" stroke-dasharray="4 8" />
        <circle cx="256" cy="256" r="120" fill="none" stroke="url(#ptahGradient)" stroke-width="2" stroke-dasharray="4 8" />
        <circle cx="256" cy="256" r="80" fill="none" stroke="url(#ptahGradient)" stroke-width="2" stroke-dasharray="4 8" />
    </g>
</svg>
