<svg width="21" height="19" viewBox="0 0 21 19" fill="none" xmlns="http://www.w3.org/2000/svg">
<path d="M10.2753 12.8454C9.83623 13.2404 9.28906 13.5004 8.69863 13.5639C8.07916 13.6306 7.22047 13.7028 6.38122 13.7067C6.38069 13.2076 6.64955 12.1891 6.85581 11.4814C7.0016 10.9812 7.29302 10.537 7.68239 10.1867L15.7254 2.95047C15.7254 2.95047 15.8436 3.67608 16.6815 4.58599C17.5195 5.4959 18.2393 5.68019 18.2393 5.68019L10.2753 12.8454Z" fill="#151515"/>
<path d="M18.3896 1.25445L18.3273 1.30545C18.3273 1.30545 18.2022 1.86667 18.931 2.65796C19.6597 3.44924 20.2547 3.28091 20.2547 3.28091C20.8213 2.81691 20.8684 1.97415 20.3571 1.45009L20.2683 1.35914C19.7657 0.843904 18.9466 0.798263 18.3896 1.25445Z" fill="#151515"/>
<path d="M16.9932 1.81372C16.9932 1.81372 17.0599 2.75062 17.813 3.56842C18.5661 4.38621 19.5036 4.5397 19.5036 4.5397" stroke="black" stroke-width="1.6"/>
<path d="M18.1817 11.3002C18.1817 13.3952 17.8814 16.0244 17.7591 17.0074C17.7303 17.2395 17.5456 17.4161 17.3125 17.4349C16.0838 17.5339 12.253 17.8236 9.51214 17.8236C7.16111 17.8236 3.45678 17.5373 2.22775 17.4366C1.98775 17.417 1.79949 17.2288 1.77752 16.9889C1.67424 15.8612 1.39953 12.6722 1.38745 10.5344C1.36996 7.43698 1.66981 4.28444 1.77808 3.25194C1.80022 3.04083 1.95329 2.87101 2.16153 2.82993C3.41188 2.58328 7.82968 1.8197 11.6227 2.49737" stroke="black" stroke-width="1.2"/>
</svg>
